<svg xmlns="http://www.w3.org/2000/svg" xmlns:xlink="http://www.w3.org/1999/xlink" width="73" height="73" viewBox="0 0 73 73">
  <defs>
    <filter id="Path_7250" x="0" y="0" width="73" height="73" filterUnits="userSpaceOnUse">
      <feOffset dy="3" input="SourceAlpha"/>
      <feGaussianBlur stdDeviation="3" result="blur"/>
      <feFlood flood-opacity="0.373"/>
      <feComposite operator="in" in2="blur"/>
      <feComposite in="SourceGraphic"/>
    </filter>
  </defs>
  <g id="Group_15545" data-name="Group 15545" transform="translate(-8031.699 -4856)">
    <g transform="matrix(1, 0, 0, 1, 8031.7, 4856)" filter="url(#Path_7250)">
      <path id="Path_7250-2" data-name="Path 7250" d="M27.5,0A27.5,27.5,0,1,1,0,27.5,27.5,27.5,0,0,1,27.5,0Z" transform="translate(9 6)" fill="#fff" opacity="0.977"/>
    </g>
    <circle id="Ellipse_1822" data-name="Ellipse 1822" cx="7" cy="7" r="7" transform="translate(8081.699 4903)" fill="#00b0b5"/>
    <g id="Group_14330" data-name="Group 14330" transform="translate(8052.699 4877.497)">
      <g id="Group_15547" data-name="Group 15547" transform="translate(1)">
        <path id="Path_7244" data-name="Path 7244" d="M44.215,265a6.863,6.863,0,0,1-2.993-.933,6.688,6.688,0,0,1-3.442-5.9c-.045-3.232-.019-6.464,0-9.7a6.946,6.946,0,0,1,5.848-6.9,6.842,6.842,0,0,1,1.183-.087q7.99-.008,15.981,0a6.926,6.926,0,0,1,7,6.947q.023,4.833,0,9.665a6.942,6.942,0,0,1-6.064,6.894,7.842,7.842,0,0,1-1.029.057q-4.5.006-9.007,0a.7.7,0,0,0-.545.229q-2.93,2.953-5.872,5.894c-.044.044-.089.088-.132.133a.514.514,0,0,1-.615.171.538.538,0,0,1-.313-.56q0-2.018,0-4.035Zm3.571-10.242a1.5,1.5,0,0,0,1.491-1.488,1.5,1.5,0,1,0-3-.013A1.5,1.5,0,0,0,47.787,254.761Zm5,0a1.5,1.5,0,0,0,1.5-1.48,1.5,1.5,0,1,0-3,0A1.5,1.5,0,0,0,52.782,254.761Zm4.993,0a1.5,1.5,0,0,0,1.512-1.468,1.5,1.5,0,1,0-3-.023A1.5,1.5,0,0,0,57.775,254.761Z" transform="translate(-37.756 -241.482)"/>
        <g id="Group_15546" data-name="Group 15546">
          <path id="Path_7245" data-name="Path 7245" d="M141.252,367.526a1.5,1.5,0,0,1-1.509-1.5,1.5,1.5,0,1,1,3,.013A1.5,1.5,0,0,1,141.252,367.526Z" transform="translate(-131.222 -354.248)" fill="#fff"/>
          <path id="Path_7246" data-name="Path 7246" d="M201.129,367.527a1.5,1.5,0,0,1-1.5-1.478,1.5,1.5,0,1,1,3,0A1.5,1.5,0,0,1,201.129,367.527Z" transform="translate(-186.103 -354.248)" fill="#fff"/>
          <path id="Path_7247" data-name="Path 7247" d="M261.012,367.525a1.5,1.5,0,0,1-1.49-1.49,1.5,1.5,0,1,1,3,.023A1.5,1.5,0,0,1,261.012,367.525Z" transform="translate(-240.993 -354.246)" fill="#fff"/>
        </g>
      </g>
    </g>
  </g>
</svg>
